<svg width="17" height="22" viewBox="0 0 17 22" fill="none" xmlns="http://www.w3.org/2000/svg">
<path d="M6.59275 0H7.18337C7.5943 0.160719 7.98937 0.383353 8.34744 0.635629C8.46239 1.11844 8.66323 1.63222 8.48948 2.12623C8.34149 2.26257 8.14066 2.31856 7.96228 2.40222C7.98342 2.59258 8.01447 2.78162 8.0442 2.97066C8.38113 2.94234 8.70816 2.85407 9.03914 2.79018C9.08473 2.59389 9.09596 2.38048 9.22082 2.21383C9.24791 2.34689 9.26971 2.48126 9.28689 2.61629C9.46394 2.71904 9.63571 2.86461 9.85571 2.84156C11.2431 2.84287 12.6311 2.8376 14.0178 2.84222C14.1704 2.83036 14.2431 2.99174 14.3481 3.07473C14.3514 2.78096 14.3501 2.48719 14.3633 2.19341C14.4043 2.19473 14.4862 2.19605 14.5272 2.19671C14.5358 2.45491 14.508 2.7197 14.58 2.97132C14.6573 2.9891 14.7366 2.99437 14.8165 3.00425C14.8205 3.10503 14.8238 3.20581 14.8298 3.30725C15.2559 3.31976 15.6866 3.34808 16.1094 3.27563C16.3935 3.23281 16.6816 3.2618 16.9683 3.26246C16.9729 3.36323 16.9822 3.46335 17 3.56347C16.6459 3.58916 16.2878 3.61287 15.9357 3.55425C15.3715 3.48575 14.808 3.60497 14.2444 3.57335C14.2253 3.64976 14.2074 3.72617 14.1896 3.80257C13.6479 3.8085 13.1061 3.79928 12.565 3.80192C12.3853 3.79731 12.1878 3.83617 12.0742 3.98701C11.915 4.18527 11.7221 4.35455 11.5688 4.55743C11.5192 4.92958 11.6652 5.29054 11.7491 5.64754C11.6216 5.69365 11.4935 5.73713 11.3679 5.78455C11.2391 6.18701 11.29 6.7021 10.9207 6.98401C10.7165 7.13683 10.5362 7.32719 10.303 7.43587C10.1332 7.51228 9.95084 7.43258 9.78039 7.40755C9.14419 7.31138 8.61699 6.92144 8.04883 6.65269C8.01183 6.80617 7.97021 6.95766 7.92859 7.10982C8.10102 7.22114 8.32366 7.31599 8.38047 7.53467C8.46768 7.85479 8.39501 8.19072 8.38246 8.51677C8.35537 8.81581 8.34678 9.11683 8.31837 9.41587C8.29062 9.70635 8.12216 9.95599 7.94907 10.1819C7.78721 10.1424 7.62865 10.0956 7.46877 10.0535C7.29634 10.4223 7.4397 10.8808 7.72378 11.1554C8.46239 11.9564 8.86275 12.9872 9.238 13.9917C9.30208 14.2038 9.52076 14.3296 9.55775 14.5529C9.61986 14.7901 9.70772 15.0278 9.68724 15.2768C9.65884 15.7135 9.62712 16.1502 9.58286 16.5856C9.55247 16.9051 9.43355 17.2239 9.50358 17.5466C9.55577 17.8095 9.58814 18.0874 9.49169 18.345C9.36154 18.6684 9.36286 19.0221 9.36088 19.3653C9.36683 19.5912 9.37938 19.8395 9.53661 20.0187C9.72292 20.2472 9.9046 20.4844 10.1272 20.6793C10.4027 20.8592 10.7819 20.8605 11.0085 21.1207C11.0799 21.2629 11.029 21.4289 11.027 21.5811C10.3116 21.6891 9.56304 21.697 8.86803 21.4744C8.47561 21.3472 8.04288 21.5653 7.66763 21.3505C7.68811 20.9033 7.79646 20.4666 7.95501 20.049C8.02042 19.7374 7.94907 19.4147 7.94246 19.0992C7.93784 18.8265 7.79712 18.5854 7.74295 18.3232C7.58769 17.7607 7.54343 17.1751 7.517 16.5942C7.48265 16.309 7.72511 16.0936 7.73502 15.815C7.78589 15.568 7.74823 15.3144 7.59496 15.1102C7.32871 15.1023 6.96998 15.1721 6.82067 14.8869C6.50885 14.4271 6.20561 13.9608 5.89444 13.501C5.78609 13.3028 5.5258 13.3495 5.34742 13.2626C5.1882 13.1163 5.10893 12.9095 5.00983 12.7231C4.95169 12.9365 4.87241 13.1506 4.71385 13.312C4.46413 13.5623 4.37428 13.9101 4.24479 14.2275C4.15362 14.4568 4.0717 14.6919 4.03867 14.9369C4.00365 15.122 3.99572 15.3387 3.82924 15.4599C3.5848 15.6444 3.49759 15.9553 3.27429 16.1581C3.10781 16.3162 3.00607 16.5316 2.95123 16.751C2.9334 16.9492 2.99088 17.1501 2.94067 17.3457C2.85016 17.7041 2.65196 18.0202 2.50662 18.3568C2.40356 18.5933 2.35004 18.8482 2.23707 19.0807C2.16176 19.2434 1.96885 19.2961 1.86314 19.4325C1.5566 19.9581 1.45882 20.5917 1.56849 21.1878C1.65636 21.4243 1.72044 21.672 1.66627 21.9262C1.47798 21.9519 1.29102 21.9829 1.10207 22H0.518052C0.366102 21.9684 0.20953 21.9447 0.0707935 21.8735C-0.0329289 21.5501 -0.0157535 21.1957 0.0773984 20.8717C0.214153 20.3843 0.338356 19.8935 0.461898 19.4035C0.545141 19.1631 0.347604 18.9477 0.365442 18.7072C0.345622 18.3529 0.565619 18.0604 0.724837 17.7647C0.874144 17.5019 0.821294 17.185 0.925016 16.9077C1.15955 16.3057 1.60285 15.8156 1.86711 15.2281C1.94837 14.989 1.8605 14.7347 1.87635 14.4884C1.89617 14.0214 1.98867 13.5603 2.06927 13.1005C2.09635 12.9234 2.15383 12.7363 2.08512 12.5617C2.01179 12.3536 1.96026 12.1323 1.98933 11.9103C2.01972 11.7061 1.8975 11.5032 1.97413 11.3037C2.01443 11.1344 2.17034 11.0389 2.29521 10.9335C2.31767 10.2379 2.06398 9.55419 2.17034 8.8606C2.2919 8.71042 2.48746 8.65641 2.65724 8.58066C2.40818 8.52928 2.15911 8.47725 1.91137 8.42257C1.90146 8.14198 1.93978 7.86401 1.99858 7.59C2.08975 7.16252 2.03953 6.72054 2.10758 6.29042C2.11815 6.18108 2.23773 6.14419 2.3322 6.14024C2.55815 6.12377 2.78607 6.11323 3.00805 6.05988C2.94198 5.51647 2.88715 4.96186 3.01003 4.42108C3.12895 3.78281 3.41568 3.13599 3.95279 2.74078C4.32275 2.4918 4.85722 2.34491 5.2437 2.64198C5.27541 2.62024 5.33883 2.57743 5.37054 2.55635C5.14592 1.95234 5.19547 1.25413 5.55222 0.71006C5.78279 0.339222 6.18711 0.128443 6.59275 0ZM10.2204 4.15563C10.2006 4.31371 10.1517 4.47048 9.99841 4.54623C10.2006 4.53305 10.4054 4.53371 10.6049 4.49024C10.6003 4.37431 10.5963 4.25904 10.5917 4.14311C10.4668 4.14575 10.3433 4.1497 10.2204 4.15563ZM9.80153 4.60222C9.78436 4.62461 9.74934 4.66808 9.73217 4.69048C9.76388 4.90455 9.92441 5.07976 10.0314 5.26551C10.1874 5.04683 10.3453 4.82814 10.4939 4.60419C10.2633 4.59365 10.0314 4.5785 9.80153 4.60222Z" fill="#FFCB44"/>
</svg>
