<svg width="20" height="13" viewBox="0 0 20 13" fill="none" xmlns="http://www.w3.org/2000/svg">
<path d="M17.3811 1.56928C17.3811 1.56928 15.9482 0.198406 12.6946 0V0.432858C12.6946 0.432858 14.4791 0.339177 16.6881 2.30406C15.0207 1.22006 12.6421 0.540998 10 0.540998C7.35791 0.540998 4.97928 1.21996 3.31189 2.30406C5.52085 0.339177 7.30536 0.432858 7.30536 0.432858V0C4.0518 0.198406 2.61887 1.56928 2.61887 1.56928C0.139671 4.455 0 10.768 0 10.768C2.3353 13.3111 5.26951 12.9866 5.26951 12.9866L6.34732 11.5798C4.95739 11.24 3.9648 10.4599 3.36822 9.85243C5.03261 10.9155 7.38736 11.5798 10 11.5798C12.6126 11.5798 14.9674 10.9156 16.6318 9.85243C16.0352 10.4598 15.0426 11.24 13.6527 11.5798L14.7305 12.9866C14.7305 12.9866 17.6647 13.3113 20 10.768C20.0002 10.7679 19.8604 4.455 17.3811 1.56928ZM6.88634 8.9823C5.94931 8.9823 5.18973 8.25303 5.18973 7.35328C5.18973 6.45362 5.94931 5.72426 6.88634 5.72426C7.82337 5.72426 8.58295 6.45362 8.58295 7.35328C8.58295 8.25293 7.82337 8.9823 6.88634 8.9823ZM13.1139 8.9823C12.1769 8.9823 11.4173 8.25303 11.4173 7.35328C11.4173 6.45362 12.1769 5.72426 13.1139 5.72426C14.0509 5.72426 14.8105 6.45362 14.8105 7.35328C14.8105 8.25293 14.051 8.9823 13.1139 8.9823Z" fill="#9BB0D0"/>
</svg>
