<svg width="16" height="16" viewBox="0 0 16 16" fill="none" xmlns="http://www.w3.org/2000/svg">
<path d="M16 3.71571C15.9374 0.73785 15.9335 1.38153 15.9945 0.453427C15.9981 0.398401 15.9568 0.350856 15.9021 0.347096C11.4916 0.0437912 11.3244 0.00881941 10.9827 0.00881941C4.96587 0.00833425 8.12469 -0.0905167 0.0935545 0.385787C0.0389847 0.389062 -0.00271689 0.435961 0.000138278 0.490784C0.517727 10.4746 0.498827 8.84594 0.234423 15.4999C0.232533 15.5477 0.264583 15.5901 0.310909 15.6011C0.911981 15.744 0.805456 15.6877 2.20758 15.6887C2.20987 15.6894 4.83518 15.4012 4.83755 15.4009C4.84994 15.403 8.46791 16 8.4805 16C8.48328 16 8.48601 15.9999 8.48878 15.9996C12.7289 15.6424 11.5136 15.7287 14.2491 15.5763L15.8554 15.9029C15.9178 15.9155 15.9751 15.867 15.9745 15.8039C15.9397 12.5526 16 3.71571 16 3.71571ZM9.47981 3.47871C9.49175 3.4758 9.50884 3.4716 9.53016 3.46589L10.6734 3.20686C11.2591 3.05933 11.3456 3.02339 11.8467 2.78651H11.8468C12.0782 2.86721 12.7126 3.22016 12.8734 3.4228C12.9797 3.55694 12.9727 3.58678 12.9393 3.73043C12.9328 3.758 12.9255 3.78974 12.9177 3.82722C12.9172 3.82968 12.9168 3.83223 12.9165 3.83474L12.665 5.81273C12.4163 5.82194 12.3955 5.80278 12.3267 5.7391C12.2983 5.71274 12.263 5.68 12.2007 5.63799C11.8224 5.38272 10.5844 4.46176 10.1934 4.14475L9.42496 3.52399L9.43115 3.51797C9.43948 3.50964 9.44687 3.49844 9.45178 3.48773C9.45564 3.48469 9.47084 3.48094 9.47981 3.47871ZM11.2614 13.4378C11.239 13.4152 1.65424 3.19958 1.64721 3.18547L2.48457 2.53965L14.1863 10.3297C14.0896 10.6083 14.051 10.928 13.9929 11.1935C13.7873 12.1312 13.5229 12.5415 13.1095 13.4324C12.5178 13.4561 11.3022 13.4515 11.2614 13.4378ZM2.54248 10.674C2.65021 10.4136 2.79832 9.99487 2.92282 9.78274C3.53487 10.1673 5.92581 12.5825 6.13376 12.9086C6.01858 12.9516 5.52388 13.0255 4.70195 13.3556C4.18118 13.5645 3.68945 13.7626 3.21449 13.6006C3.16712 13.5845 3.04085 13.4768 2.85361 13.3143C2.51164 13.0175 2.20195 12.8037 2.02188 12.6968C1.71472 12.5145 1.76258 12.5529 2.54248 10.674Z" fill="#EA473B"/>
</svg>
