<svg width="16" height="14" viewBox="0 0 16 14" fill="none" xmlns="http://www.w3.org/2000/svg">
<path fill-rule="evenodd" clip-rule="evenodd" d="M14.4 0.599976H1.6C0.72 0.599976 0.008 1.31998 0.008 2.19998L0 11.8C0 12.68 0.72 13.4 1.6 13.4H14.4C15.28 13.4 16 12.68 16 11.8V2.19998C16 1.31998 15.28 0.599976 14.4 0.599976ZM13.6 11.8H2.4C1.96 11.8 1.6 11.44 1.6 11V3.79998L7.152 7.27198C7.672 7.59998 8.328 7.59998 8.848 7.27198L14.4 3.79998V11C14.4 11.44 14.04 11.8 13.6 11.8ZM8 6.19998L1.6 2.19998H14.4L8 6.19998Z" fill="#9BB0D0"/>
</svg>
