<svg width="40" height="40" viewBox="0 0 40 40" fill="none" xmlns="http://www.w3.org/2000/svg">
<rect width="40" height="40" fill="#1F2A40"/>
<path fill-rule="evenodd" clip-rule="evenodd" d="M20.5229 24.6583C19.9084 25.2642 19.3006 25.8594 18.6979 26.46C18.4872 26.67 18.2502 26.7859 17.948 26.7694C17.7421 26.7582 17.6266 26.6657 17.5635 26.4672C17.1023 25.0158 16.6336 23.5668 16.1745 22.1147C16.1298 21.9733 16.0624 21.9054 15.9221 21.8619C14.8347 21.525 13.7494 21.1809 12.6655 20.8324C12.505 20.7808 12.3426 20.7145 12.2033 20.6209C11.961 20.4581 11.9264 20.1991 12.1477 20.0116C12.3522 19.8383 12.5946 19.6932 12.843 19.5937C14.217 19.0431 15.5981 18.5104 16.9767 17.9713C20.2928 16.6746 23.6091 15.3779 26.9251 14.0806C27.5607 13.8318 28.0547 14.1768 27.9951 14.8713C27.9559 15.3291 27.8382 15.781 27.7439 16.233C27.009 19.751 26.2713 23.2684 25.5346 26.7859C25.5331 26.7927 25.5327 26.7997 25.5312 26.8064C25.351 27.6111 24.7739 27.8311 24.116 27.3406C22.9738 26.489 21.8344 25.6335 20.6937 24.7799C20.6398 24.7396 20.584 24.7017 20.5229 24.6583ZM17.999 25.7662C18.0168 25.6836 18.0291 25.6455 18.0327 25.6066C18.1052 24.8155 18.1809 24.0247 18.2451 23.2328C18.2594 23.0571 18.3111 22.9273 18.4453 22.8053C20.1763 21.2311 21.9019 19.6508 23.6288 18.0721C24.1201 17.6231 24.6134 17.1762 25.0998 16.7219C25.1509 16.6742 25.162 16.5826 25.1917 16.5113C25.1165 16.4897 25.0323 16.4351 24.9681 16.4532C24.8199 16.4951 24.6704 16.5549 24.5403 16.6377C21.9727 18.274 19.4083 19.9156 16.8406 21.5517C16.7099 21.635 16.6726 21.7035 16.725 21.863C17.1316 23.1004 17.5264 24.3418 17.9255 25.5818C17.9411 25.6304 17.9632 25.6769 17.999 25.7662Z" fill="#6590FF"/>
</svg>
