<svg width="176" height="23" viewBox="0 0 176 23" fill="none" xmlns="http://www.w3.org/2000/svg">
<path d="M82.6288 23C82.4526 22.8456 82.2764 22.6913 82.1254 22.5112C81.169 21.4821 80.2126 20.453 79.2562 19.4239C79.382 17.057 79.4827 14.7416 79.6086 12.3233C80.3385 12.6577 80.7663 13.2494 81.32 13.6868C81.8737 14.1242 82.4023 14.6387 82.9812 15.1532C82.9308 16.2338 82.8805 17.34 82.8553 18.5235C83.1573 18.8579 83.5097 19.2181 83.8621 19.6298C85.7497 19.6298 87.6122 19.6298 89.5754 19.6298C89.6257 18.4978 89.7012 17.3658 89.7767 16.1823C88.6189 16.1823 87.4864 16.1823 86.4041 16.1823C84.1389 14.2013 81.9492 12.2718 79.7344 10.3423C79.8603 8.0783 79.9861 5.84004 80.0868 3.55034C81.2949 2.36689 82.5281 1.18344 83.7362 0C91.01 0 98.2334 0 105.557 0C106.64 1.15772 107.747 2.36689 108.88 3.55034C108.754 5.76286 108.653 7.94966 108.527 10.368C107.344 9.33893 106.287 8.41275 105.306 7.56376C105.306 6.48322 105.306 5.50559 105.306 4.39933C105.004 4.11633 104.651 3.73042 104.324 3.39597C102.386 3.39597 100.499 3.39597 98.5606 3.39597C98.5103 4.50224 98.4347 5.6085 98.3844 6.76622C99.668 6.76622 100.926 6.76622 102.135 6.76622C104.274 8.61857 106.338 10.4452 108.452 12.2975C108.326 14.6644 108.2 17.057 108.074 19.4497C106.841 20.6331 105.608 21.8423 104.4 23C97.1008 23 89.9277 23 82.6288 23ZM98.0824 12.9922C99.1898 13.9955 100.348 14.9217 101.43 15.9508C101.405 16.0022 101.379 16.0537 101.354 16.1051C100.222 16.1051 99.0891 16.1051 97.881 16.1051C97.8307 17.2886 97.7552 18.3948 97.7048 19.5526C99.6428 19.5526 101.556 19.5526 103.594 19.5526C103.922 19.1667 104.274 18.7808 104.651 18.3434C104.727 16.7483 104.802 15.1275 104.903 13.481C102.739 11.6029 100.624 9.67338 98.3592 7.7953C98.2837 8.67002 98.2334 9.4161 98.1579 10.2908C96.975 9.26174 95.943 8.3613 94.9615 7.5123C94.9615 6.45749 94.9615 5.45414 94.9615 4.42505C94.8356 4.29642 94.6846 4.14206 94.4833 3.96197C94.2819 4.14206 94.1057 4.32215 93.9296 4.47651C93.854 5.86577 93.8037 7.17785 93.7282 8.46421C95.2132 9.77629 96.6478 11.0112 98.0321 12.2461C98.0572 12.5291 98.0824 12.7606 98.0824 12.9922ZM90.0787 9.5962C89.0468 8.69575 88.0904 7.82103 87.1088 6.97203C87.134 6.89485 87.1592 6.8434 87.1843 6.76622C88.1911 6.76622 89.1978 6.76622 90.2549 6.76622C90.3053 5.58277 90.3808 4.47651 90.4311 3.37024C88.5183 3.37024 86.6055 3.37024 84.7178 3.37024C84.3403 3.73042 83.9628 4.0906 83.5852 4.45078C83.5097 6.02013 83.4342 7.56375 83.3587 9.1331C85.498 10.9855 87.587 12.8893 89.8271 14.7673C89.9026 13.8669 89.9781 13.1208 90.0536 12.2461C91.2365 13.2752 92.3188 14.2271 93.401 15.1532C93.3507 16.2852 93.2752 17.3658 93.2248 18.472C93.3758 18.6521 93.5017 18.8322 93.6779 19.038C93.9547 18.7808 94.1561 18.6007 94.3322 18.4206C94.4078 17.0056 94.4581 15.6163 94.5336 14.1756C93.0738 12.8893 91.614 11.6029 90.1542 10.3166C90.1039 10.1107 90.1039 9.87919 90.0787 9.5962Z" fill="white"/>
<path d="M151.742 19.1152C151.994 14.0984 152.245 9.08165 152.522 3.98769C155.442 3.98769 158.261 3.98769 161.205 3.98769C161.935 4.6566 162.741 5.40269 163.521 6.14877C163.445 7.7953 163.345 9.4161 163.269 11.0626C162.414 11.8087 161.558 12.5291 160.677 13.3009C161.382 15.2561 162.086 17.2114 162.816 19.2696C162.162 19.4239 161.558 19.2953 160.979 19.2953C160.375 19.2953 159.796 19.2953 159.142 19.2953C158.311 17.2629 157.506 15.3076 156.675 13.3266C156.398 13.3266 156.147 13.3266 155.769 13.3266C155.668 15.2562 155.568 17.1857 155.442 19.0895C154.813 19.2696 152.698 19.2953 151.742 19.1152ZM156.021 9.93064C157.204 9.93064 158.361 9.93064 159.569 9.93064C159.569 9.08165 159.569 8.28411 159.569 7.48657C158.512 7.48657 156.7 7.48657 156.021 7.48657C156.021 8.25839 156.021 9.10738 156.021 9.93064Z" fill="white"/>
<path d="M150.559 17.057C149.703 17.7774 148.873 18.4978 148.017 19.2181C145.953 19.2181 143.889 19.2181 141.75 19.2181C140.995 18.5235 140.24 17.8031 139.435 17.057C139.611 13.4553 139.812 9.85347 139.988 6.14877C140.819 5.45414 141.7 4.68233 142.555 3.96197C144.644 3.96197 146.658 3.96197 148.722 3.96197C149.477 4.6566 150.257 5.37696 151.088 6.14877C150.937 9.77629 150.76 13.4295 150.559 17.057ZM146.884 15.8736C147.035 13.0179 147.161 10.2136 147.312 7.38367C146.054 7.38367 144.921 7.38367 143.688 7.38367C143.537 10.2136 143.386 13.0179 143.26 15.8736C144.468 15.8736 145.626 15.8736 146.884 15.8736Z" fill="white"/>
<path d="M68.6602 19.2181C66.546 19.2181 64.4822 19.2181 62.3932 19.2181C61.6381 18.4978 60.8831 17.8031 60.0777 17.057C60.128 16.3624 60.1532 15.6421 60.2035 14.896C61.4619 14.896 62.6197 14.896 63.8278 14.896C63.853 15.0761 63.853 15.2304 63.8781 15.3848C63.8781 15.5134 63.9033 15.6678 63.9033 15.8479C65.1114 15.8479 66.244 15.8479 67.5024 15.8479C67.5528 15.0246 67.5779 14.1756 67.6283 13.2752C65.9671 13.2752 64.3815 13.2752 62.8211 13.2752C61.9905 12.5034 61.2103 11.8087 60.4049 11.0369C60.4804 9.41611 60.5559 7.7953 60.6565 6.12304C61.5123 5.40268 62.368 4.6566 63.2237 3.93624C65.2876 3.93624 67.3011 3.93624 69.3901 3.93624C70.1451 4.63087 70.9254 5.35123 71.6553 6.02014C71.6553 6.79195 71.6553 7.5123 71.6553 8.28411C70.3968 8.28411 69.2139 8.28411 68.0058 8.28411C67.9806 7.97539 67.9303 7.71812 67.9051 7.35794C66.7474 7.35794 65.6148 7.35794 64.3563 7.35794C64.306 8.12975 64.2557 8.90156 64.1802 9.77628C65.0359 9.87919 65.8413 9.82774 66.6467 9.82774C67.4521 9.82774 68.2323 9.82774 69.0629 9.82774C69.8431 10.5481 70.6233 11.2685 71.4287 12.0403C71.3532 13.6868 71.2777 15.3333 71.1771 17.0056C70.3717 17.7517 69.5411 18.472 68.6602 19.2181Z" fill="white"/>
<path d="M116.959 19.2181C116.179 18.4978 115.424 17.8031 114.643 17.0828C114.694 16.3881 114.719 15.6935 114.769 14.9474H118.419C118.444 15.2304 118.394 15.5392 118.419 15.9251C118.998 15.9251 119.627 15.9508 120.231 15.9508C120.81 15.9508 121.363 15.9508 122.043 15.9508C122.068 15.1018 122.043 14.3042 122.068 13.3266C120.407 13.2752 118.998 13.3266 117.336 13.2752C116.607 12.6063 115.826 11.8859 114.971 11.0884C115.046 9.51901 115.122 7.89821 115.197 6.17449C116.002 5.47986 116.883 4.73378 117.764 3.98769H123.956C124.711 4.68232 125.491 5.40268 126.221 6.07159V8.20694C125.592 8.30984 123.478 8.33557 122.546 8.28411C122.521 8.02684 122.496 7.74385 122.446 7.4094C121.288 7.4094 120.004 7.38367 118.771 7.38367C118.721 8.18121 118.771 9.10738 118.721 9.93064C119.551 9.95637 120.332 9.90492 121.137 9.90492C121.942 9.90492 122.723 9.90492 123.603 9.90492C124.358 10.5995 125.139 11.3456 125.944 12.0917C125.894 14.0727 125.894 15.0246 125.843 16.9799C124.963 17.7517 124.082 18.472 123.201 19.2438L116.959 19.2181Z" fill="white"/>
<path d="M0.578881 6.12304C1.45978 5.37696 2.31552 4.6566 3.14609 3.93624C5.18475 3.93624 7.19825 3.93624 9.31242 3.93624C10.0423 4.60515 10.8225 5.32551 11.5776 6.02014C11.5776 6.79195 11.5776 7.48658 11.5776 8.33557C10.3443 8.3613 9.1614 8.3613 7.92814 8.33557C7.90297 8.00112 7.85263 7.71812 7.82746 7.38367C6.69487 7.38367 5.53711 7.38367 4.27868 7.38367C4.22834 8.15548 4.178 8.95302 4.12767 9.80201C5.81397 9.80201 7.39959 9.80201 8.96005 9.80201C9.79062 10.5738 10.596 11.3199 11.3762 12.066C11.3007 13.7383 11.2001 15.3591 11.1246 17.0313C10.294 17.7517 9.43826 18.472 8.58252 19.1924C6.49352 19.1924 4.42969 19.1924 2.31552 19.1924C1.56046 18.4978 0.805398 17.8031 0 17.057C0.0503374 16.3624 0.0755061 15.6421 0.125843 14.896C1.38428 14.896 2.59238 14.896 3.7753 14.896C3.80047 15.2304 3.80047 15.5134 3.82564 15.8479C5.00857 15.8479 6.16633 15.8479 7.42476 15.8479C7.4751 15.0246 7.50027 14.2013 7.55061 13.2752C5.88947 13.2752 4.30385 13.2752 2.74339 13.2752C1.91282 12.5291 1.13259 11.8087 0.327194 11.0369C0.4027 9.46756 0.503375 7.84676 0.578881 6.12304Z" fill="white"/>
<path d="M175.275 19.1924C171.55 19.1924 167.926 19.1924 164.175 19.1924C164.427 14.0984 164.704 9.08165 164.956 3.98769C168.655 3.98769 172.28 3.98769 175.904 3.98769C176.08 4.70805 176.005 6.53468 175.753 7.30649C173.387 7.30649 171.021 7.30649 168.504 7.30649C168.454 8.15548 168.429 8.95302 168.379 9.85347C169.612 9.85347 170.77 9.85347 172.053 9.85347C171.978 11.0112 171.927 12.066 171.877 13.2494C170.644 13.2494 169.461 13.2494 168.202 13.2494C168.152 14.1756 168.127 14.9989 168.077 15.9251C170.568 15.9251 172.959 15.9251 175.426 15.9251C175.401 17.057 175.35 18.0861 175.275 19.1924Z" fill="white"/>
<path d="M48.1225 19.1667C48.3742 14.0984 48.6511 9.08165 48.9028 3.98769C50.136 3.98769 51.2938 3.98769 52.5271 3.98769C52.7032 5.22259 52.4264 6.45749 52.4516 7.89821C53.5338 6.45749 54.4902 5.19687 55.4215 3.96197C56.9316 3.96197 58.3662 3.96197 59.977 3.96197C57.9132 6.58613 55.9248 9.08165 53.9617 11.5772C55.6983 14.0984 57.3846 16.5682 59.1968 19.1924C58.4417 19.1924 57.8125 19.2181 57.1833 19.2181C56.5289 19.2181 55.8745 19.2181 55.1446 19.2181C54.1882 17.9832 53.2066 16.6969 52.1495 15.3076C51.8978 16.6711 51.9482 17.906 51.8475 19.1667C50.6142 19.1667 49.4565 19.1667 48.1225 19.1667Z" fill="white"/>
<path d="M46.9144 14.9217C46.9144 15.6678 46.9144 16.3367 46.9144 17.0313C46.0587 17.7774 45.203 18.4978 44.3472 19.2181C42.2834 19.2181 40.2447 19.2181 38.1054 19.2181C37.3755 18.5492 36.5953 17.8289 35.7899 17.0828C35.9661 13.4295 36.1674 9.77629 36.3436 6.14877C37.2497 5.37696 38.1054 4.6566 38.936 3.96197C41.025 3.96197 43.0385 3.96197 45.1023 3.96197C45.8825 4.68233 46.6879 5.42841 47.4933 6.17449C47.443 6.89485 47.3926 7.58949 47.3171 8.33557C46.0839 8.33557 44.9009 8.33557 43.6677 8.33557C43.6425 8.02685 43.6173 7.74385 43.567 7.4094C42.4092 7.4094 41.2767 7.4094 40.0182 7.4094C39.8672 10.2136 39.7162 13.0179 39.5904 15.8736C40.8236 15.8736 41.9562 15.8736 43.1895 15.8736C43.2398 15.5649 43.265 15.2819 43.3153 14.9217C44.4982 14.9217 45.6812 14.9217 46.9144 14.9217Z" fill="white"/>
<path d="M131.305 7.38367C131.154 10.2651 131.028 13.0436 130.877 15.8736C132.11 15.8736 133.268 15.8736 134.451 15.8736C134.501 15.5906 134.527 15.3076 134.577 14.9474C135.76 14.9474 136.968 14.9474 138.201 14.9474C138.201 15.6421 138.201 16.3367 138.201 17.0313C137.32 17.7774 136.465 18.4978 135.634 19.2181C133.57 19.2181 131.506 19.2181 129.392 19.2181C128.662 18.5235 127.882 17.8031 127.077 17.057C127.253 13.4295 127.454 9.80201 127.63 6.12304C128.511 5.37696 129.367 4.63087 130.223 3.93624C132.287 3.93624 134.275 3.93624 136.364 3.93624C137.119 4.63087 137.924 5.40269 138.755 6.14877C138.705 6.86913 138.654 7.56376 138.579 8.30984C137.346 8.30984 136.163 8.30984 134.929 8.30984C134.904 7.97539 134.879 7.69239 134.829 7.35794C133.721 7.38367 132.563 7.38367 131.305 7.38367Z" fill="white"/>
<path d="M34.3804 19.1924C33.122 19.1924 31.9139 19.1924 30.6806 19.1924C30.58 18.5492 30.4541 17.906 30.3283 17.16C29.4474 17.0313 28.5413 17.1342 27.5849 17.1085C27.3835 17.8289 27.2074 18.5235 27.006 19.2181C25.7727 19.2181 24.5898 19.2181 23.3062 19.2181C24.7912 14.1242 26.2761 9.08165 27.7611 3.98769C29.0195 3.98769 30.2024 3.98769 31.5112 3.98769C32.4424 9.0302 33.424 14.0727 34.3804 19.1924ZM29.3719 10.4195C29.3215 10.4195 29.2712 10.3937 29.2208 10.3937C28.944 11.4743 28.6671 12.5805 28.3903 13.7125C28.9188 13.7125 29.3467 13.7125 29.8501 13.7125C29.6739 12.5805 29.5229 11.5 29.3719 10.4195Z" fill="white"/>
<path d="M24.2626 3.98769C24.1871 5.11968 24.1368 6.1745 24.0613 7.30649C22.8532 7.30649 21.6702 7.30649 20.4118 7.30649C20.2105 11.3199 20.0091 15.2047 19.7826 19.1667C18.5493 19.1667 17.3664 19.1667 16.0828 19.1667C16.2086 15.2561 16.5107 11.3714 16.6365 7.35794C15.4536 7.35794 14.2958 7.35794 13.0626 7.35794C12.9367 6.17449 13.1129 5.09396 13.1632 3.96197C16.8882 3.9877 20.5125 3.98769 24.2626 3.98769Z" fill="white"/>
<path d="M101.505 16.0022C101.304 15.9508 101.103 15.8736 100.901 15.8221L101.505 16.0022Z" fill="white"/>
<path d="M11.3762 12.1689C11.3007 12.1689 11.2001 12.1689 11.1246 12.1689H11.3762Z" fill="white"/>
<path d="M71.4539 12.1689C71.3784 12.1689 71.2777 12.1689 71.2022 12.1689H71.4539Z" fill="white"/>
<path d="M98.0824 12.349C97.881 12.3747 97.6797 12.4004 97.4783 12.4262L98.0824 12.349Z" fill="white"/>
</svg>
