<svg width="168" height="88" viewBox="0 0 168 88" fill="none" xmlns="http://www.w3.org/2000/svg">
<path d="M10.8477 21.6633C10.8477 21.6633 10.8477 40.8425 10.8477 47.1835C10.8477 53.5245 17.5232 53.8094 17.5232 53.8094C17.5232 53.8094 17.5232 34.6219 17.5232 28.4101C17.5232 22.1984 10.8477 21.6633 10.8477 21.6633Z" fill="white"/>
<path d="M82.5397 22.337C82.5397 22.337 64.8079 22.3364 62.0265 22.3364C59.245 22.3364 55.351 26.4086 55.351 31.447C55.351 36.4855 58.8973 40.5582 62.0265 40.5576C65.1556 40.5571 71.553 40.4886 73.8477 40.4886C76.1424 40.4886 76.4901 43.0418 76.4901 44.2157C76.4901 45.3896 75.5866 47.1835 73.8477 47.1835C72.1087 47.1835 67.8681 47.1835 62.0265 47.1835C56.1849 47.1835 55.8377 53.2573 55.8377 53.2573C55.8377 53.2573 73.0828 53.2573 76.4901 53.2573C79.8973 53.2573 83.1656 48.5639 83.1656 44.2157C83.1656 39.8674 80.0359 34.6656 76.4901 34.6656C72.9443 34.6656 65.92 34.6656 63.9735 34.6656C62.027 34.6656 62.0265 32.3437 62.0265 31.447C62.0265 30.5503 62.6523 28.4102 64.043 28.4102C65.4338 28.4102 70.6579 28.4102 76.4901 28.4102C82.3222 28.4102 82.5397 22.337 82.5397 22.337Z" fill="white"/>
<path d="M86.5033 53.2573C86.5033 53.2573 86.5033 42.0943 86.5033 34.6656C86.5033 27.2368 93.2484 22.3364 97.5596 22.3364C101.871 22.3364 113.762 22.3364 113.762 22.3364C113.762 22.3364 113.762 28.4102 108.199 28.4102C102.636 28.4102 101.801 28.4102 98.6027 28.4102C95.404 28.4102 93.1799 32.156 93.1794 34.6656C93.1788 37.1751 93.1788 41.8 93.1788 47.1835C93.1788 52.5671 86.5033 53.2573 86.5033 53.2573Z" fill="white"/>
<path d="M113.205 34.6655C113.205 34.6655 99.8532 34.6655 98.324 34.6655C96.7947 34.6655 95.404 36.0708 95.404 37.4512C95.404 38.8316 96.2384 40.488 98.1854 40.488C100.132 40.488 102.219 40.488 107.573 40.488C112.927 40.488 113.205 34.6655 113.205 34.6655Z" fill="white"/>
<path d="M52.1974 53.2572C52.4438 52.2109 52.5679 51.185 52.5673 50.2204C52.564 43.9164 47.8355 34.6655 36.5066 34.6655C25.3519 34.6655 20.8609 43.6469 20.8609 50.2204C20.8609 56.7938 25.7747 65.4047 35.2783 65.4047C44.782 65.4047 50.8545 65.4047 50.8545 65.4047C50.8545 65.4047 50.6286 59.331 45.3378 59.331C40.0469 59.331 43.4892 59.331 36.5066 59.331C29.5241 59.331 28.0927 53.2572 28.0927 53.2572H52.1974ZM28.0899 47.1835C28.0899 47.1835 29.7672 41.1098 36.5066 41.1098C43.2461 41.1098 45.3378 47.1835 45.3378 47.1835H28.0899Z" fill="#E31A33"/>
<path d="M55.4556 64.5659H54.5778V59.3916H55.4556V64.5659Z" fill="white"/>
<path d="M59.3224 64.5742H58.5141V62.2574C58.5107 62.0464 58.4851 61.8858 58.4379 61.7759C58.3578 61.5953 58.2087 61.5053 57.99 61.5053C57.8009 61.5053 57.6463 61.5804 57.5261 61.7295C57.4026 61.888 57.3409 62.1083 57.3409 62.3893V64.5742H56.5326V60.7566H57.3136V61.3198H57.3192C57.4104 61.1343 57.5066 60.9929 57.6084 60.8957C57.7831 60.7328 57.9962 60.6511 58.2471 60.6511C58.5636 60.6511 58.8184 60.7593 59.0114 60.9758C59.2189 61.2055 59.3229 61.5269 59.3229 61.941V64.5742H59.3224Z" fill="white"/>
<path d="M61.1993 60.7102H61.7033V61.4263H61.1993V63.6179C61.1993 63.7449 61.2137 63.8244 61.2432 63.8553C61.2833 63.9039 61.3823 63.9282 61.5392 63.9282L61.7033 63.9149V64.6675L61.5442 64.6741L61.3194 64.6935H61.221C60.8866 64.6935 60.6558 64.6167 60.5273 64.4627C60.4244 64.3395 60.3732 64.1391 60.3732 63.8619V61.4269H59.9626V60.7108H60.3732V59.6677H61.1987V60.7102H61.1993Z" fill="white"/>
<path d="M65.3041 63.4644C65.2057 63.8868 65.0193 64.2054 64.7456 64.4202C64.5192 64.6052 64.2583 64.6974 63.9629 64.6974C63.4995 64.6974 63.1379 64.5434 62.8787 64.2352C62.5867 63.8786 62.4404 63.3308 62.4404 62.5915C62.4365 62.1602 62.5132 61.777 62.6707 61.443C62.9188 60.9151 63.3299 60.6506 63.9028 60.6506C64.2861 60.6506 64.5999 60.7826 64.8447 61.0465C65.1695 61.4027 65.332 61.9697 65.332 62.7477V62.9454H63.2509V62.9719C63.2798 63.2237 63.3276 63.4136 63.3933 63.5412C63.5062 63.7709 63.6959 63.8857 63.9629 63.8857C64.0759 63.8857 64.1799 63.8487 64.275 63.7736C64.3735 63.6941 64.443 63.5914 64.4831 63.4633H65.3041V63.4644ZM64.5059 62.2817C64.4836 62.004 64.4074 61.7942 64.2756 61.6534C64.166 61.5429 64.038 61.4877 63.8923 61.4877C63.7131 61.4877 63.5707 61.5584 63.465 61.6992C63.3627 61.8361 63.3009 62.0305 63.2792 62.2817H64.5059Z" fill="white"/>
<path d="M66.1302 60.7566H66.9124V61.4258H66.918C67.0237 61.1696 67.126 60.9885 67.2245 60.883C67.3708 60.729 67.5605 60.6511 67.7941 60.6511L67.9532 60.6638V61.7041C67.9165 61.6908 67.8764 61.682 67.8325 61.6776C67.8069 61.6776 67.7724 61.6776 67.7285 61.6776C67.4253 61.6776 67.21 61.777 67.0821 61.9746C66.9908 62.1199 66.9452 62.3269 66.9452 62.5947V64.5748H66.1302V60.7566Z" fill="white"/>
<path d="M71.4629 64.5742H70.6546V62.2574C70.6512 62.0464 70.6256 61.8858 70.5784 61.7759C70.4983 61.5953 70.3492 61.5053 70.1305 61.5053C69.9414 61.5053 69.7868 61.5804 69.6666 61.7295C69.5431 61.888 69.4814 62.1083 69.4814 62.3893V64.5742H68.6731V60.7566H69.4541V61.3198H69.4597C69.5509 61.1343 69.6471 60.9929 69.7489 60.8957C69.9236 60.7328 70.1367 60.6511 70.3876 60.6511C70.7041 60.6511 70.9589 60.7593 71.1519 60.9758C71.3594 61.2055 71.4634 61.5269 71.4634 61.941V64.5742H71.4629Z" fill="white"/>
<path d="M74.9803 63.8386C74.9803 64.0413 74.997 64.1892 75.0298 64.2815C75.0554 64.3472 75.0971 64.398 75.1555 64.4327V64.5719H74.286C74.2604 64.4835 74.2421 64.4134 74.2315 64.3604C74.2243 64.3074 74.2171 64.2329 74.2093 64.1362C74.0708 64.3035 73.9484 64.4239 73.8427 64.499C73.6569 64.631 73.4455 64.6967 73.2085 64.6967C72.9498 64.6967 72.7345 64.6061 72.5632 64.4261C72.3663 64.2235 72.2678 63.9375 72.2678 63.5675C72.2678 63.2108 72.3535 62.9248 72.5248 62.7089C72.6778 62.5112 72.8914 62.3875 73.1651 62.339L73.8983 62.2075C73.9823 62.1855 74.0463 62.1567 74.0902 62.1214C74.1559 62.0684 74.1887 61.9983 74.1887 61.9105C74.1887 61.7211 74.1247 61.5935 73.9973 61.5273C73.9206 61.4837 73.8076 61.4616 73.658 61.4616C73.4716 61.4616 73.3387 61.5207 73.258 61.6394C73.1963 61.7277 73.1612 61.8464 73.154 61.9961H72.3707C72.4108 61.4632 72.5716 61.0922 72.8525 60.8807C73.0605 60.7272 73.3604 60.6499 73.7509 60.6499C74.0535 60.6499 74.3122 60.7156 74.5269 60.8476C74.8284 61.0414 74.9797 61.3473 74.9797 61.7653V63.8386H74.9803ZM74.1892 62.7117C74.1492 62.7558 74.0891 62.7928 74.009 62.8238C73.9256 62.8591 73.8032 62.8922 73.643 62.9231C73.4572 62.9673 73.3259 63.0203 73.2497 63.0816C73.1401 63.1738 73.0856 63.3146 73.0856 63.504C73.0856 63.6669 73.1273 63.79 73.2113 63.8734C73.2808 63.9397 73.3643 63.9728 73.4627 63.9728C73.6558 63.9728 73.8215 63.9049 73.9601 63.7679C74.113 63.6227 74.1898 63.4378 74.1898 63.2136V62.7117H74.1892Z" fill="white"/>
<path d="M76.8444 60.7102H77.3484V61.4263H76.8444V63.6179C76.8444 63.7449 76.8589 63.8244 76.8884 63.8553C76.9284 63.9039 77.0274 63.9282 77.1843 63.9282L77.3484 63.9149V64.6675L77.1893 64.6741L76.9646 64.6935H76.8661C76.5318 64.6935 76.3009 64.6167 76.1724 64.4627C76.0695 64.3395 76.0183 64.1391 76.0183 63.8619V61.4269H75.6078V60.7108H76.0183V59.6677H76.8439V60.7102H76.8444Z" fill="white"/>
<path d="M79.2359 60.3319H78.4187V59.3916H79.2359V60.3319ZM79.2359 60.788V64.5703H78.4187V60.788H79.2359Z" fill="white"/>
<path d="M82.8346 64.1949C82.5531 64.5245 82.1987 64.6891 81.7709 64.6891C81.332 64.6891 80.9704 64.5245 80.6851 64.1949C80.3669 63.8305 80.2083 63.3236 80.2083 62.6731C80.2083 62.0188 80.3674 61.5075 80.6851 61.1387C80.9704 60.814 81.332 60.6511 81.7709 60.6511C82.1987 60.6511 82.5531 60.814 82.8346 61.1387C83.1528 61.5075 83.3113 62.0194 83.3113 62.6731C83.3113 63.3236 83.1528 63.8305 82.8346 64.1949ZM82.3456 61.9001C82.2249 61.6367 82.0329 61.5053 81.7698 61.5053C81.4956 61.5053 81.2981 61.6367 81.1779 61.9001C81.0939 62.0934 81.0516 62.3518 81.0516 62.6764C81.0516 62.984 81.0939 63.2363 81.1779 63.4335C81.2986 63.7007 81.4961 63.8349 81.7698 63.8349C82.0329 63.8349 82.2249 63.7012 82.3456 63.4335C82.4335 63.2363 82.4769 62.984 82.4769 62.6764C82.4769 62.3562 82.4335 62.0972 82.3456 61.9001Z" fill="white"/>
<path d="M86.8721 64.5742H86.0639V62.2574C86.06 62.0464 86.0344 61.8858 85.9871 61.7759C85.907 61.5953 85.7579 61.5053 85.5398 61.5053C85.3501 61.5053 85.196 61.5804 85.0759 61.7295C84.9518 61.888 84.8901 62.1083 84.8901 62.3893V64.5742H84.0818V60.7566H84.8623V61.3198H84.8678C84.9591 61.1343 85.0553 60.9929 85.1577 60.8957C85.3323 60.7328 85.5454 60.6511 85.7963 60.6511C86.1128 60.6511 86.3676 60.7593 86.5606 60.9758C86.7681 61.2055 86.8721 61.5269 86.8721 61.941V64.5742Z" fill="white"/>
<path d="M90.3896 63.8386C90.3896 64.0413 90.4057 64.1892 90.4385 64.2815C90.4647 64.3472 90.5064 64.398 90.5648 64.4327V64.5719H89.6953C89.6692 64.4835 89.6514 64.4134 89.6402 64.3604C89.633 64.3074 89.6258 64.2329 89.6186 64.1362C89.48 64.3035 89.3576 64.4239 89.2519 64.499C89.0661 64.631 88.8548 64.6967 88.6178 64.6967C88.3585 64.6967 88.1433 64.6061 87.9725 64.4261C87.7756 64.2235 87.6776 63.9375 87.6776 63.5675C87.6776 63.2108 87.7633 62.9248 87.9347 62.7089C88.0876 62.5112 88.3012 62.3875 88.5749 62.339L89.3081 62.2075C89.3916 62.1855 89.4561 62.1567 89.4995 62.1214C89.5651 62.0684 89.5985 61.9983 89.5985 61.9105C89.5985 61.7211 89.5345 61.5935 89.4066 61.5273C89.3298 61.4837 89.2169 61.4616 89.0673 61.4616C88.8809 61.4616 88.748 61.5207 88.6673 61.6394C88.6055 61.7277 88.5705 61.8464 88.5633 61.9961H87.78C87.8201 61.4632 87.9808 61.0922 88.2618 60.8807C88.4698 60.7272 88.7691 60.6499 89.1602 60.6499C89.4628 60.6499 89.7215 60.7156 89.9362 60.8476C90.2383 61.0414 90.389 61.3473 90.389 61.7653V63.8386H90.3896ZM89.5985 62.7117C89.5585 62.7558 89.4978 62.7928 89.4183 62.8238C89.3348 62.8591 89.2125 62.8922 89.0522 62.9231C88.8664 62.9673 88.7352 63.0203 88.6589 63.0816C88.5494 63.1738 88.4948 63.3146 88.4948 63.504C88.4948 63.6669 88.5366 63.79 88.6206 63.8734C88.6895 63.9397 88.7735 63.9728 88.872 63.9728C89.065 63.9728 89.2308 63.9049 89.3693 63.7679C89.5223 63.6227 89.5991 63.4378 89.5991 63.2136V62.7117H89.5985Z" fill="white"/>
<path d="M92.3121 64.5659H91.4949V59.3916H92.3121V64.5659Z" fill="white"/>
<path d="M97.9957 63.4644C97.8967 63.8868 97.7109 64.2054 97.4372 64.4202C97.2108 64.6052 96.9493 64.6974 96.654 64.6974C96.1906 64.6974 95.829 64.5434 95.5697 64.2352C95.2783 63.8786 95.1319 63.3308 95.1319 62.5915C95.1281 62.1602 95.2048 61.777 95.3617 61.443C95.6098 60.9151 96.0209 60.6506 96.5939 60.6506C96.9772 60.6506 97.2915 60.7826 97.5357 61.0465C97.8605 61.4027 98.023 61.9697 98.023 62.7477V62.9454H95.9425V62.9719C95.9719 63.2237 96.0192 63.4136 96.0849 63.5412C96.1978 63.7709 96.388 63.8857 96.654 63.8857C96.7669 63.8857 96.8715 63.8487 96.9666 63.7736C97.0651 63.6941 97.1346 63.5914 97.1746 63.4633H97.9957V63.4644ZM97.1974 62.2817C97.1758 62.004 97.099 61.7942 96.9677 61.6534C96.8581 61.5429 96.7302 61.4877 96.5844 61.4877C96.4058 61.4877 96.2634 61.5584 96.1572 61.6992C96.0548 61.8361 95.9931 62.0305 95.9708 62.2817H97.1974Z" fill="white"/>
<path d="M101.478 62.3335H98.9092V61.5312H101.478V62.3335Z" fill="white"/>
<path d="M103.264 62.9796C103.268 63.1866 103.319 63.3562 103.417 63.4881C103.568 63.6902 103.813 63.7918 104.157 63.7918C104.401 63.7918 104.597 63.7498 104.743 63.6659C104.933 63.556 105.028 63.3799 105.028 63.1381C105.028 62.9531 104.957 62.8101 104.814 62.709C104.712 62.6383 104.532 62.5704 104.273 62.5042L103.825 62.3656C103.6 62.2999 103.434 62.2469 103.328 62.2071C103.156 62.137 103.016 62.0558 102.907 61.9631C102.773 61.8488 102.672 61.708 102.607 61.5401C102.534 61.3513 102.498 61.1221 102.498 60.8538C102.494 60.4573 102.59 60.1211 102.787 59.8439C103.064 59.4563 103.501 59.2625 104.1 59.2625C104.666 59.2625 105.095 59.4629 105.387 59.8643C105.606 60.1641 105.719 60.5203 105.726 60.9344H104.899C104.877 60.7367 104.826 60.5799 104.746 60.4656C104.6 60.2679 104.363 60.1685 104.034 60.1685C103.841 60.1685 103.678 60.2127 103.547 60.3005C103.386 60.4104 103.306 60.5711 103.306 60.7825C103.306 60.9498 103.355 61.0774 103.453 61.1652C103.511 61.2182 103.606 61.2668 103.738 61.3104L103.749 61.317L104.77 61.634C105.108 61.7312 105.36 61.8631 105.523 62.0304C105.749 62.2596 105.862 62.5898 105.862 63.021C105.862 63.677 105.632 64.1479 105.175 64.434C104.894 64.6101 104.574 64.6984 104.217 64.6984C103.541 64.6984 103.052 64.4892 102.749 64.0701C102.533 63.7752 102.426 63.4119 102.426 62.9801H103.264V62.9796Z" fill="white"/>
<path d="M107.531 61.3032H107.537C107.642 61.1061 107.748 60.9609 107.854 60.8687C108.022 60.7235 108.226 60.6511 108.467 60.6511C108.828 60.6511 109.127 60.814 109.364 61.1387C109.623 61.4948 109.752 61.9885 109.752 62.6207C109.752 63.201 109.648 63.677 109.44 64.0502C109.206 64.4759 108.876 64.6891 108.449 64.6891C108.201 64.6891 107.997 64.6145 107.835 64.4654C107.744 64.3821 107.655 64.2567 107.567 64.0894H107.562V65.5074H106.753V60.7566H107.53V61.3032H107.531ZM107.697 63.5185C107.822 63.746 108.004 63.8603 108.244 63.8603C108.478 63.8603 108.655 63.7222 108.776 63.4456C108.871 63.2352 108.918 62.9873 108.918 62.7018C108.918 62.3601 108.867 62.0878 108.765 61.8857C108.644 61.6489 108.466 61.5302 108.228 61.5302C107.969 61.5302 107.783 61.6555 107.67 61.9056C107.578 62.1072 107.533 62.3882 107.533 62.7477C107.533 63.0596 107.587 63.3164 107.697 63.5185Z" fill="white"/>
<path d="M112.958 64.1949C112.677 64.5245 112.322 64.6891 111.895 64.6891C111.456 64.6891 111.094 64.5245 110.809 64.1949C110.491 63.8305 110.333 63.3236 110.333 62.6731C110.333 62.0188 110.491 61.5075 110.809 61.1387C111.094 60.814 111.456 60.6511 111.895 60.6511C112.322 60.6511 112.677 60.814 112.958 61.1387C113.276 61.5075 113.435 62.0194 113.435 62.6731C113.435 63.3236 113.276 63.8305 112.958 64.1949ZM112.469 61.9001C112.348 61.6367 112.156 61.5053 111.894 61.5053C111.619 61.5053 111.422 61.6367 111.302 61.9001C111.218 62.0934 111.175 62.3518 111.175 62.6764C111.175 62.984 111.217 63.2363 111.302 63.4335C111.422 63.7007 111.619 63.8349 111.894 63.8349C112.157 63.8349 112.348 63.7012 112.469 63.4335C112.557 63.2363 112.601 62.984 112.601 62.6764C112.601 62.3562 112.557 62.0972 112.469 61.9001Z" fill="white"/>
<path d="M114.232 60.7566H115.014V61.4258H115.019C115.125 61.1696 115.227 60.9885 115.326 60.883C115.473 60.729 115.662 60.6511 115.896 60.6511L116.055 60.6638V61.7041C116.018 61.6908 115.977 61.682 115.934 61.6776C115.908 61.6776 115.874 61.6776 115.829 61.6776C115.526 61.6776 115.311 61.777 115.183 61.9746C115.092 62.1199 115.047 62.3269 115.047 62.5947V64.5748H114.231V60.7566H114.232Z" fill="white"/>
<path d="M117.706 60.7102H118.21V61.4263H117.706V63.6179C117.706 63.7449 117.721 63.8244 117.75 63.8553C117.79 63.9039 117.889 63.9282 118.046 63.9282L118.21 63.9149V64.6675L118.051 64.6741L117.827 64.6935H117.728C117.394 64.6935 117.163 64.6167 117.035 64.4627C116.931 64.3395 116.881 64.1391 116.881 63.8619V61.4269H116.47V60.7108H116.881V59.6677H117.706V60.7102Z" fill="white"/>
<path d="M120.905 61.9355C120.884 61.7732 120.844 61.6539 120.785 61.5794C120.697 61.4778 120.553 61.4275 120.353 61.4275C120.152 61.4275 120.013 61.4695 119.936 61.5529C119.881 61.6103 119.855 61.6937 119.855 61.8035C119.855 61.9085 119.92 61.9929 120.052 62.0542C120.133 62.0978 120.29 62.1486 120.524 62.2055C120.92 62.3021 121.2 62.4076 121.364 62.5219C121.65 62.7107 121.793 62.9923 121.793 63.365C121.793 63.8581 121.629 64.2181 121.3 64.4467C121.062 64.6135 120.776 64.6968 120.44 64.6968C120.032 64.6968 119.697 64.5997 119.438 64.4059C119.12 64.1717 118.958 63.8211 118.951 63.3551H119.794C119.794 63.5357 119.842 63.672 119.936 63.7643C120.046 63.8741 120.223 63.9294 120.468 63.9294C120.65 63.9294 120.789 63.8808 120.884 63.7841C120.957 63.7096 120.993 63.624 120.993 63.5274C120.993 63.4092 120.924 63.3142 120.785 63.2441C120.701 63.2049 120.538 63.1541 120.297 63.0928C119.91 62.9962 119.636 62.8935 119.475 62.7831C119.2 62.5942 119.064 62.3132 119.064 61.9405C119.064 61.5987 119.15 61.3121 119.326 61.0819C119.544 60.7942 119.873 60.6506 120.315 60.6506C120.687 60.6506 120.984 60.7285 121.207 60.8831C121.506 61.0907 121.67 61.4419 121.7 61.935H120.905V61.9355Z" fill="white"/>
<path d="M125.391 64.5737H124.513V59.3911H127.489V60.3055H125.391V61.4877H127.226V62.402H125.391V64.5737Z" fill="white"/>
<path d="M130.918 63.4644C130.819 63.8868 130.633 64.2054 130.359 64.4202C130.133 64.6052 129.871 64.6974 129.576 64.6974C129.112 64.6974 128.751 64.5434 128.492 64.2352C128.2 63.8786 128.054 63.3308 128.054 62.5915C128.05 62.1602 128.127 61.777 128.284 61.443C128.532 60.9151 128.943 60.6506 129.516 60.6506C129.899 60.6506 130.213 60.7826 130.458 61.0465C130.782 61.4027 130.945 61.9697 130.945 62.7477V62.9454H128.864V62.9719C128.894 63.2237 128.941 63.4136 129.007 63.5412C129.12 63.7709 129.31 63.8857 129.576 63.8857C129.689 63.8857 129.793 63.8487 129.889 63.7736C129.987 63.6941 130.056 63.5914 130.097 63.4633H130.918V63.4644ZM130.119 62.2817C130.097 62.004 130.02 61.7942 129.889 61.6534C129.779 61.5429 129.652 61.4877 129.506 61.4877C129.327 61.4877 129.185 61.5584 129.079 61.6992C128.976 61.8361 128.914 62.0305 128.892 62.2817H130.119Z" fill="white"/>
<path d="M134.508 64.5669H133.716V64.1053C133.621 64.303 133.488 64.4526 133.317 64.5537C133.165 64.6459 132.999 64.6923 132.82 64.6923C132.383 64.6923 132.047 64.4791 131.814 64.0534C131.611 63.6802 131.508 63.2037 131.508 62.6239C131.508 61.9917 131.637 61.498 131.896 61.1419C132.133 60.8167 132.431 60.6543 132.792 60.6543C133.025 60.6543 133.225 60.7245 133.393 60.8653C133.506 60.9575 133.604 61.0867 133.687 61.2534H133.699V59.4004H134.507V64.5669H134.508ZM132.484 63.4488C132.6 63.7254 132.779 63.8635 133.02 63.8635C133.265 63.8635 133.453 63.7492 133.585 63.5211C133.697 63.3196 133.755 63.0629 133.755 62.7514C133.755 62.3953 133.705 62.1154 133.607 61.9088C133.489 61.6593 133.305 61.5339 133.053 61.5339C132.809 61.5339 132.626 61.6526 132.506 61.8895C132.404 62.0911 132.353 62.3633 132.353 62.7056C132.352 62.9905 132.396 63.2379 132.484 63.4488Z" fill="white"/>
<path d="M138.157 63.4644C138.058 63.8868 137.872 64.2054 137.598 64.4202C137.372 64.6052 137.111 64.6974 136.815 64.6974C136.352 64.6974 135.99 64.5434 135.731 64.2352C135.44 63.8786 135.293 63.3308 135.293 62.5915C135.29 62.1602 135.366 61.777 135.523 61.443C135.771 60.9151 136.182 60.6506 136.755 60.6506C137.139 60.6506 137.453 60.7826 137.697 61.0465C138.022 61.4027 138.184 61.9697 138.184 62.7477V62.9454H136.104V62.9719C136.133 63.2237 136.181 63.4136 136.246 63.5412C136.359 63.7709 136.549 63.8857 136.815 63.8857C136.928 63.8857 137.033 63.8487 137.128 63.7736C137.227 63.6941 137.296 63.5914 137.336 63.4633H138.157V63.4644ZM137.358 62.2817C137.337 62.004 137.26 61.7942 137.129 61.6534C137.019 61.5429 136.891 61.4877 136.745 61.4877C136.567 61.4877 136.424 61.5584 136.318 61.6992C136.216 61.8361 136.153 62.0305 136.132 62.2817H137.358Z" fill="white"/>
<path d="M138.983 60.7566H139.765V61.4258H139.771C139.877 61.1696 139.979 60.9885 140.078 60.883C140.224 60.729 140.414 60.6511 140.647 60.6511L140.806 60.6638V61.7041C140.77 61.6908 140.729 61.682 140.685 61.6776C140.659 61.6776 140.625 61.6776 140.581 61.6776C140.278 61.6776 140.062 61.777 139.935 61.9746C139.843 62.1199 139.798 62.3269 139.798 62.5947V64.5748H138.983V60.7566H138.983Z" fill="white"/>
<path d="M144.098 63.8386C144.098 64.0413 144.114 64.1892 144.147 64.2815C144.173 64.3472 144.215 64.398 144.274 64.4327V64.5719H143.404C143.379 64.4835 143.361 64.4134 143.35 64.3604C143.342 64.3074 143.335 64.2329 143.327 64.1362C143.189 64.3035 143.066 64.4239 142.961 64.499C142.776 64.631 142.564 64.6967 142.327 64.6967C142.068 64.6967 141.853 64.6061 141.682 64.4261C141.485 64.2235 141.386 63.9375 141.386 63.5675C141.386 63.2108 141.472 62.9248 141.644 62.7089C141.797 62.5112 142.011 62.3875 142.284 62.339L143.017 62.2075C143.101 62.1855 143.165 62.1567 143.209 62.1214C143.275 62.0684 143.307 61.9983 143.307 61.9105C143.307 61.7211 143.244 61.5935 143.116 61.5273C143.039 61.4837 142.926 61.4616 142.777 61.4616C142.59 61.4616 142.457 61.5207 142.377 61.6394C142.315 61.7277 142.28 61.8464 142.272 61.9961H141.489C141.529 61.4632 141.69 61.0922 141.971 60.8807C142.179 60.7272 142.478 60.6499 142.869 60.6499C143.172 60.6499 143.431 60.7156 143.646 60.8476C143.947 61.0414 144.098 61.3473 144.098 61.7653V63.8386ZM143.307 62.7117C143.267 62.7558 143.207 62.7928 143.127 62.8238C143.043 62.8591 142.921 62.8922 142.76 62.9231C142.575 62.9673 142.444 63.0203 142.367 63.0816C142.258 63.1738 142.203 63.3146 142.203 63.504C142.203 63.6669 142.245 63.79 142.329 63.8734C142.398 63.9397 142.482 63.9728 142.58 63.9728C142.774 63.9728 142.94 63.9049 143.078 63.7679C143.231 63.6227 143.307 63.4378 143.307 63.2136V62.7117H143.307Z" fill="white"/>
<path d="M145.963 60.7102H146.466V61.4263H145.963V63.6179C145.963 63.7449 145.976 63.8244 146.006 63.8553C146.046 63.9039 146.145 63.9282 146.302 63.9282L146.466 63.9149V64.6675L146.307 64.6741L146.083 64.6935H145.984C145.65 64.6935 145.419 64.6167 145.291 64.4627C145.188 64.3395 145.137 64.1391 145.137 63.8619V61.4269H144.726V60.7108H145.137V59.6677H145.963V60.7102Z" fill="white"/>
<path d="M148.354 60.3319H147.537V59.3916H148.354V60.3319ZM148.354 60.788V64.5703H147.537V60.788H148.354Z" fill="white"/>
<path d="M151.952 64.1949C151.671 64.5245 151.316 64.6891 150.889 64.6891C150.45 64.6891 150.089 64.5245 149.803 64.1949C149.486 63.8305 149.326 63.3236 149.326 62.6731C149.326 62.0188 149.486 61.5075 149.803 61.1387C150.089 60.814 150.45 60.6511 150.889 60.6511C151.317 60.6511 151.671 60.814 151.952 61.1387C152.27 61.5075 152.429 62.0194 152.429 62.6731C152.429 63.3236 152.271 63.8305 151.952 64.1949ZM151.463 61.9001C151.342 61.6367 151.15 61.5053 150.887 61.5053C150.614 61.5053 150.416 61.6367 150.295 61.9001C150.212 62.0934 150.169 62.3518 150.169 62.6764C150.169 62.984 150.211 63.2363 150.295 63.4335C150.416 63.7007 150.614 63.8349 150.887 63.8349C151.151 63.8349 151.342 63.7012 151.463 63.4335C151.551 63.2363 151.594 62.984 151.594 62.6764C151.595 62.3562 151.552 62.0972 151.463 61.9001Z" fill="white"/>
<path d="M155.99 64.5742H155.182V62.2574C155.178 62.0464 155.152 61.8858 155.105 61.7759C155.025 61.5953 154.876 61.5053 154.657 61.5053C154.468 61.5053 154.314 61.5804 154.193 61.7295C154.07 61.888 154.008 62.1083 154.008 62.3893V64.5742H153.2V60.7566H153.98V61.3198H153.986C154.077 61.1343 154.173 60.9929 154.276 60.8957C154.45 60.7328 154.663 60.6511 154.914 60.6511C155.231 60.6511 155.486 60.7593 155.679 60.9758C155.886 61.2055 155.99 61.5269 155.99 61.941V64.5742Z" fill="white"/>
</svg>
