<svg width="168" height="88" viewBox="0 0 168 88" fill="none" xmlns="http://www.w3.org/2000/svg">
<path d="M54.7848 29C48.5268 28.9915 44.3824 32.411 43.7993 37.524C43.6633 38.7057 43.5232 39.8869 43.379 41.0675H124.803C124.803 41.0675 124.957 39.8219 125.076 38.8222C125.688 33.6714 123.577 29.0006 115.897 29.0006V29.0013C115.897 29.0013 58.0839 29.0038 54.7848 29ZM5.09252 29.0016L3.66346 41.0675H40.5895L42.0131 29.0019H5.09191H5.09252V29.0016ZM129.045 29.0016L127.619 41.0675H167.65C167.65 41.0675 167.698 40.6312 167.876 39.2109C168.85 31.291 163.921 29.0016 159.162 29.0016H129.045ZM127.068 45.6618L123.948 71.9952L137.759 71.9902L140.881 45.6668L127.068 45.6611V45.6618ZM153.305 45.6618L150.18 71.9952L163.991 71.9902L167.113 45.6668L153.305 45.6611V45.6618ZM3.12475 45.6655L0 71.9965H36.9236L38.2841 60.5736L15.1634 60.5711L15.7482 55.6454H38.8598L40.0429 45.6662H3.12657L3.12475 45.6655ZM42.8373 45.6655C41.8242 52.5379 45.1427 55.6445 49.846 55.6445C52.4041 55.6445 68.5276 55.6369 68.5276 55.6369L67.9446 60.5702L41.0736 60.5727L39.7204 71.9955C39.7204 71.9955 68.9746 72.0056 70.1602 71.9955C71.1392 71.9225 77.9827 71.7286 80.3124 65.9265C81.0679 64.0429 81.736 57.2889 81.9231 55.8711C82.9993 47.6364 77.4992 45.6731 73.1677 45.6731C70.7796 45.6731 47.5527 45.6655 42.8373 45.6655ZM85.8222 45.6655L82.7029 71.9965H96.5064L98.4499 55.6454H115.788C120.705 55.6454 123.348 52.9049 123.839 49.2248C123.996 48.0406 124.138 46.8543 124.264 45.6662H85.8222V45.6655Z" fill="#E52534"/>
</svg>
