<svg width="26" height="26" viewBox="0 0 26 26" fill="none" xmlns="http://www.w3.org/2000/svg">
<path d="M9.87847 0C15.3344 0 19.7569 4.42256 19.7569 9.87846C19.7569 12.1628 18.9803 14.2653 17.6805 15.9388L19.0161 17.2743L21.0405 15.2499C21.09 15.2014 21.1565 15.1743 21.2257 15.1743C21.295 15.1743 21.3614 15.2014 21.4109 15.2499L22.7042 16.5432C22.7527 16.5927 22.7798 16.6591 22.7798 16.7284C22.7798 16.7976 22.7527 16.8641 22.7042 16.9136L20.6798 18.938L22.1388 20.3971L24.1633 18.3726C24.2127 18.3242 24.2792 18.2971 24.3485 18.2971C24.4177 18.2971 24.4842 18.3242 24.5337 18.3726L25.827 19.6659C25.8754 19.7154 25.9025 19.7819 25.9025 19.8511C25.9025 19.9204 25.8754 19.9869 25.827 20.0364L23.8026 22.0608L25.9245 24.1827C25.9729 24.2316 26 24.2976 26 24.3663C26 24.4351 25.9729 24.5011 25.9245 24.5499L24.5499 25.9244C24.4492 26.0252 24.2835 26.0252 24.1828 25.9244L15.942 17.6837C14.2073 19.0292 12.0739 19.7587 9.87847 19.7569C4.42257 19.7569 0 15.3344 0 9.87846C0 4.42256 4.42257 0 9.87847 0ZM4.64028 15.1166C6.03756 16.5172 7.89953 17.2873 9.87847 17.2873C11.8574 17.2873 13.7194 16.5172 15.1167 15.1166C16.5172 13.7194 17.2873 11.8574 17.2873 9.87846C17.2873 7.89952 16.5172 6.03756 15.1167 4.64028C13.7194 3.23974 11.8574 2.46961 9.87847 2.46961C7.89953 2.46961 6.03756 3.23974 4.64028 4.64028C3.23975 6.03756 2.46962 7.89952 2.46962 9.87846C2.46962 11.8574 3.23975 13.7194 4.64028 15.1166Z" fill="#FFE793"/>
</svg>
