<svg width="24" height="30" viewBox="0 0 24 30" fill="none" xmlns="http://www.w3.org/2000/svg">
<path d="M23.5165 3.84415L12.493 0.0684708C12.36 0.0228236 12.1816 0 12.0032 0C11.8247 0 11.6463 0.0228236 11.5133 0.0684708L0.489859 3.84415C0.220599 3.93544 0 4.24845 0 4.53538V20.2641C0 20.551 0.184914 20.9292 0.408757 21.1086L11.5912 29.8663C11.7047 29.9544 11.8507 30 11.9999 30C12.1492 30 12.2984 29.9544 12.4087 29.8663L23.5911 21.1086C23.8149 20.9325 23.9999 20.5543 23.9999 20.2641V4.53538C24.0063 4.24845 23.7858 3.9387 23.5165 3.84415ZM21.6706 19.6381L12.0032 27.209L2.33575 19.6381V5.69612L12.0032 2.38344L21.6706 5.69612V19.6381ZM8.50603 13.0844C8.40871 12.9508 8.25299 12.8693 8.0843 12.8693H6.29356C6.08269 12.8693 5.95941 13.1105 6.08269 13.2833L10.1832 18.9566C10.2317 19.0233 10.2952 19.0776 10.3685 19.115C10.4417 19.1524 10.5228 19.1719 10.605 19.1719C10.6872 19.1719 10.7682 19.1524 10.8415 19.115C10.9147 19.0776 10.9782 19.0233 11.0267 18.9566L17.9237 9.41311C18.0469 9.2403 17.9237 8.99902 17.7128 8.99902H15.922C15.7566 8.99902 15.5976 9.08053 15.5003 9.21422L10.605 15.9896L8.50603 13.0844Z" fill="#FFE793"/>
</svg>
