<svg width="24" height="21" viewBox="0 0 24 21" fill="none" xmlns="http://www.w3.org/2000/svg">
<g opacity="0.8">
<path d="M23.75 18.8523H2.25V0.238636C2.25 0.107386 2.1375 0 2 0H0.25C0.1125 0 0 0.107386 0 0.238636V20.7614C0 20.8926 0.1125 21 0.25 21H23.75C23.8875 21 24 20.8926 24 20.7614V19.0909C24 18.9597 23.8875 18.8523 23.75 18.8523ZM5 16.4659H6.75C6.8875 16.4659 7 16.3585 7 16.2273V11.9318C7 11.8006 6.8875 11.6932 6.75 11.6932H5C4.8625 11.6932 4.75 11.8006 4.75 11.9318V16.2273C4.75 16.3585 4.8625 16.4659 5 16.4659ZM9.75 16.4659H11.5C11.6375 16.4659 11.75 16.3585 11.75 16.2273V6.68182C11.75 6.55057 11.6375 6.44318 11.5 6.44318H9.75C9.6125 6.44318 9.5 6.55057 9.5 6.68182V16.2273C9.5 16.3585 9.6125 16.4659 9.75 16.4659ZM14.5 16.4659H16.25C16.3875 16.4659 16.5 16.3585 16.5 16.2273V9.00852C16.5 8.87727 16.3875 8.76989 16.25 8.76989H14.5C14.3625 8.76989 14.25 8.87727 14.25 9.00852V16.2273C14.25 16.3585 14.3625 16.4659 14.5 16.4659ZM19.25 16.4659H21C21.1375 16.4659 21.25 16.3585 21.25 16.2273V4.29545C21.25 4.1642 21.1375 4.05682 21 4.05682H19.25C19.1125 4.05682 19 4.1642 19 4.29545V16.2273C19 16.3585 19.1125 16.4659 19.25 16.4659Z" fill="#FFE793"/>
</g>
</svg>
