<svg width="16" height="16" viewBox="0 0 16 16" fill="none" xmlns="http://www.w3.org/2000/svg">
<path d="M0.0262015 8.53743C0.0524029 8.28324 -3.90432e-09 7.98892 0.0524029 7.68122C0.131007 7.18623 0.406123 6.79826 0.838447 6.58421C0.943252 6.5307 0.995655 6.47718 1.02186 6.33002C1.20527 5.25976 1.63759 4.26978 2.26643 3.38681C2.34503 3.27979 2.39743 3.22627 2.29263 3.07911C2.18782 2.91857 2.26643 2.74466 2.37123 2.61088C3.26208 1.59413 4.31014 0.84495 5.55471 0.430225C8.54167 -0.533007 11.1618 0.122526 13.4282 2.38345C13.6379 2.5975 13.913 2.79817 13.6379 3.15938C13.5855 3.2129 13.6641 3.26641 13.7165 3.31992C14.3584 4.22964 14.7907 5.24639 14.9872 6.3434C15.0134 6.45043 15.092 6.50394 15.1706 6.55745C15.7078 6.83839 15.9829 7.30663 15.9829 7.93541C15.9829 8.48392 16.0353 9.03242 15.9567 9.58093C15.8257 10.3836 15.0396 10.9321 14.2798 10.7582C14.0702 10.7047 13.9785 10.5442 13.9785 10.3167C13.9785 9.40701 14.0047 8.49729 13.9785 7.58757C13.8999 5.13936 12.8518 3.29317 10.7688 2.11588C7.33641 0.189417 2.88216 2.37007 2.13542 6.35678C2.00441 7.03907 2.03061 7.76149 2.03061 8.44378C2.03061 9.09931 2.03061 9.74147 2.00441 10.397C2.00441 10.6111 1.8734 10.7582 1.62449 10.7582C0.641936 10.8117 0 10.183 0 9.16621C0.0262015 9.00567 0.0262015 8.80499 0.0262015 8.53743Z" fill="#9BB0D0"/>
<path d="M6.82548 11.7482C7.1792 11.6144 7.44121 11.3602 7.51982 10.9455C7.59842 10.5308 7.1399 9.95552 6.52416 9.3535C5.88223 8.72472 5.04378 8.05581 4.58526 7.815C3.91712 7.40028 3.28828 7.76149 3.15728 8.56419C3.00007 9.44715 3.15728 10.2766 3.6158 11.0124C3.94332 11.5342 4.40184 11.7616 4.96518 11.8151C5.27959 11.8017 6.55036 11.8686 6.82548 11.7482Z" fill="#9BB0D0"/>
<path d="M9.70764 12.0024C10.1138 12.0559 10.4937 12.1362 10.8998 12.1629C11.4369 12.1897 11.8431 12.0291 12.1444 11.6947C12.5243 11.28 12.7077 10.7582 12.6815 10.2097C12.6553 9.63444 12.1968 9.29999 11.581 9.40701C11.0177 9.48728 10.533 9.74147 10.0221 9.92877C9.56353 10.1161 9.15741 10.3435 8.82989 10.6378C8.37137 11.0793 8.62028 11.6813 9.34082 11.9087C9.43252 11.9489 9.56353 11.9756 9.70764 12.0024Z" fill="#9BB0D0"/>
<path d="M13.9916 11.5074C13.913 11.4271 13.782 11.4806 13.7165 11.5877C13.4675 12.3904 12.3147 15.0794 8.38447 15.3603C3.74681 15.6948 10.8605 16.7115 12.8911 15.173C13.5855 14.6245 14.3715 14.076 14.3453 12.4974C14.3453 12.1897 14.2012 11.6679 13.9916 11.5074Z" fill="#9BB0D0"/>
</svg>
