<svg width="16" height="14" viewBox="0 0 16 14" fill="none" xmlns="http://www.w3.org/2000/svg">
<path id="telegramm_red copy" fill-rule="evenodd" clip-rule="evenodd" d="M8.52294 10.6583C7.90843 11.2642 7.30056 11.8594 6.69792 12.46C6.48722 12.67 6.2502 12.7859 5.94798 12.7694C5.74215 12.7582 5.6266 12.6657 5.56353 12.4672C5.10235 11.0158 4.63363 9.5668 4.17453 8.11472C4.12979 7.97334 4.06242 7.9054 3.92212 7.86194C2.83468 7.52505 1.74941 7.18086 0.665528 6.83244C0.505045 6.78084 0.342557 6.71453 0.203317 6.62092C-0.039023 6.45805 -0.0736079 6.19909 0.147695 6.01159C0.352176 5.83831 0.594598 5.69324 0.842954 5.5937C2.21702 5.04313 3.59808 4.51041 4.97665 3.97133C8.29284 2.67457 11.6091 1.37794 14.9251 0.0805547C15.5608 -0.168163 16.0547 0.176774 15.9951 0.871293C15.9559 1.32912 15.8382 1.78098 15.7439 2.23296C15.009 5.75097 14.2713 9.26835 13.5346 12.7859C13.5331 12.7927 13.5327 12.7997 13.5312 12.8064C13.351 13.6111 12.7739 13.8311 12.116 13.3406C10.9738 12.489 9.83442 11.6335 8.6937 10.7799C8.63975 10.7396 8.58396 10.7017 8.52294 10.6583ZM5.99901 11.7662C6.01677 11.6836 6.02909 11.6455 6.03269 11.6066C6.10518 10.8155 6.18094 10.0247 6.24511 9.23284C6.2594 9.05711 6.31113 8.92734 6.4453 8.80532C8.17626 7.23111 9.90187 5.65083 11.6288 4.07213C12.1201 3.62306 12.6134 3.17622 13.0998 2.72192C13.1509 2.67422 13.162 2.58256 13.1917 2.51131C13.1165 2.48975 13.0323 2.43508 12.9681 2.45321C12.8199 2.4951 12.6704 2.55486 12.5403 2.63772C9.97267 4.27403 7.40831 5.9156 4.84055 7.55174C4.70991 7.63498 4.67262 7.70349 4.72501 7.86296C5.1316 9.10041 5.5264 10.3418 5.92546 11.5818C5.94109 11.6304 5.96315 11.6769 5.99901 11.7662Z" fill="#9BB0D0"/>
</svg>
