<svg width="40" height="40" viewBox="0 0 40 40" fill="none" xmlns="http://www.w3.org/2000/svg">
<rect width="40" height="40" fill="#1F2A40"/>
<path fill-rule="evenodd" clip-rule="evenodd" d="M19.764 25.9537H21.0791C21.0791 25.9537 21.4761 25.9156 21.6788 25.7243C21.866 25.548 21.8598 25.2178 21.8598 25.2178C21.8598 25.2178 21.8342 23.6716 22.6529 23.4435C23.46 23.2188 24.497 24.9379 25.5954 25.599C26.4266 26.0994 27.0582 25.9898 27.0582 25.9898L29.996 25.9537C29.996 25.9537 31.5325 25.8707 30.8039 24.812C30.7441 24.7255 30.379 24.0284 28.6195 22.5966C26.777 21.0981 27.024 21.3404 29.2433 18.7478C30.5942 17.1697 31.1348 16.2056 30.9655 15.793C30.8047 15.3995 29.8111 15.5037 29.8111 15.5037L26.5027 15.5214C26.5027 15.5214 26.2573 15.4921 26.0755 15.5874C25.8984 15.6807 25.7842 15.8985 25.7842 15.8985C25.7842 15.8985 25.2599 17.12 24.5623 18.1589C23.0895 20.3512 22.4999 20.4669 22.2591 20.3308C21.699 20.0135 21.8388 19.0569 21.8388 18.3768C21.8388 16.2519 22.207 15.3661 21.1234 15.1367C20.7637 15.0611 20.4988 15.0107 19.5791 15.0026C18.3991 14.9917 17.4002 15.0053 16.8347 15.2484C16.4579 15.4097 16.1674 15.7699 16.3445 15.7903C16.5628 15.8162 17.0584 15.9074 17.3209 16.2206C17.6596 16.625 17.648 17.5325 17.648 17.5325C17.648 17.5325 17.843 20.0332 17.1928 20.3444C16.7469 20.5568 16.1355 20.1224 14.822 18.133C14.1493 17.1145 13.6412 15.9884 13.6412 15.9884C13.6412 15.9884 13.5434 15.778 13.3686 15.665C13.1565 15.5289 12.8605 15.4853 12.8605 15.4853L9.71683 15.5037C9.71683 15.5037 9.24531 15.5152 9.07208 15.695C8.9175 15.855 9.05965 16.1859 9.05965 16.1859C9.05965 16.1859 11.5206 21.2322 14.307 23.7751C16.8626 26.1069 19.764 25.9537 19.764 25.9537Z" fill="#6590FF"/>
</svg>
