<svg width="16" height="16" viewBox="0 0 16 16" fill="none" xmlns="http://www.w3.org/2000/svg">
<path fill-rule="evenodd" clip-rule="evenodd" d="M5.76425 4.06368C5.60913 3.69218 5.4915 3.67805 5.2565 3.66855C5.1765 3.66393 5.08738 3.6593 4.9885 3.6593C4.68275 3.6593 4.36313 3.74868 4.17025 3.94618C3.93525 4.18605 3.35213 4.74568 3.35213 5.89318C3.35213 7.0408 4.189 8.15068 4.30188 8.30605C4.4195 8.46105 5.9335 10.8503 8.28438 11.8241C10.1228 12.5859 10.6683 12.5153 11.0866 12.4261C11.6979 12.2944 12.4643 11.8427 12.6571 11.2973C12.8499 10.7517 12.8499 10.2861 12.7934 10.1873C12.737 10.0886 12.5818 10.0323 12.3468 9.91455C12.1118 9.79693 10.9691 9.23255 10.7529 9.1573C10.5413 9.07743 10.3391 9.10568 10.1794 9.33143C9.95363 9.64655 9.73275 9.96643 9.554 10.1592C9.413 10.3097 9.1825 10.3286 8.98975 10.2486C8.73113 10.1406 8.00713 9.8863 7.11375 9.09155C6.4225 8.47555 5.95238 7.70905 5.81613 7.47855C5.67975 7.24343 5.802 7.10693 5.91013 6.98005C6.02775 6.83418 6.1405 6.7308 6.258 6.5943C6.37563 6.45793 6.44138 6.38743 6.51663 6.22743C6.59663 6.0723 6.54013 5.9123 6.48375 5.79468C6.42725 5.6768 5.95713 4.52918 5.76425 4.06368ZM7.99763 0C3.58738 0 0 3.58838 0 7.99988C0 9.74938 0.56425 11.372 1.52338 12.6889L0.5265 15.6613L3.6015 14.6785C4.86625 15.5156 6.3755 16 8.00237 16C12.4126 16 16 12.4114 16 8.00012C16 3.58862 12.4126 0.00025 8.00237 0.00025H7.99775V0H7.99763Z" fill="#9BB0D0"/>
</svg>
